Coordinates
version=1
nRows=22
nColumns=24
inDegrees=yes

Units are S.I. units (second, meters, Newtons, ...)
Angles are in degrees.

endheader
time	pelvis_tilt	pelvis_list	pelvis_rotation	pelvis_tx	pelvis_ty	pelvis_tz	hip_flexion_r	hip_adduction_r	hip_rotation_r	knee_angle_r	ankle_angle_r	subtalar_angle_r	mtp_angle_r	hip_flexion_l	hip_adduction_l	hip_rotation_l	knee_angle_l	ankle_angle_l	subtalar_angle_l	mtp_angle_l	lumbar_extension	lumbar_bending	lumbar_rotation
      0.01000000	     69.09794376	     -1.15128320	      3.93325617	      0.65196916	      1.01441168	     -0.21827682	     -7.70067395	     -8.92284721	     -1.06145794	    -56.93030577	    -15.41098951	     30.80148069	     81.82333357	    -10.94952341	    -13.02135939	      6.76886788	    -57.61818938	    -10.82834868	     31.16527093	     32.02600338	      0.00000000	      0.00000000	      0.00000000
      0.02000000	     68.98698673	     -1.03548977	      3.93288707	      0.65190803	      1.01439368	     -0.21826795	     -7.63163634	     -9.11232808	     -1.04533391	    -56.28153855	    -15.39008875	     30.67233706	     81.77974635	    -10.83097868	    -12.86516007	      6.84634142	    -57.60016707	    -10.78482969	     31.17180568	     31.98871551	      0.00000000	      0.00000000	      0.00000000
      0.03000000	     68.94042765	     -0.99350102	      3.92843038	      0.65187922	      1.01439342	     -0.21823842	     -7.62966909	     -9.18526407	     -0.98770585	    -55.53338015	    -15.51765618	     30.49848366	     81.69969412	    -10.78105825	    -12.81473042	      6.87114844	    -57.59063589	    -10.75995708	     31.17214600	     31.94306389	      0.00000000	      0.00000000	      0.00000000
      0.04000000	     68.93472354	     -1.00264663	      3.92250224	      0.65189459	      1.01439975	     -0.21819962	     -7.67141509	     -9.17607439	     -0.89745733	    -54.69645059	    -15.76429686	     30.28390068	     81.58274981	    -10.77697173	    -12.83896549	      6.85685040	    -57.58887393	    -10.74719491	     31.16649764	     31.89166803	      0.00000000	      0.00000000	      0.00000000
      0.05000000	     68.94451441	     -1.03852832	      3.91777162	      0.65193367	      1.01439586	     -0.21814763	     -7.73028427	     -9.12265901	     -0.78298394	    -53.78319200	    -16.09506502	     30.03521588	     81.42794317	    -10.79206290	    -12.90353542	      6.81918606	    -57.59410623	    -10.73962497	     31.15555276	     31.83872813	      0.00000000	      0.00000000	      0.00000000
      0.06000000	     68.94977035	     -1.08142854	      3.91579358	      0.65195911	      1.01437818	     -0.21807122	     -7.78366980	     -9.05670400	     -0.64979621	    -52.80537263	    -16.47689036	     29.76102661	     81.23383724	    -10.80222305	    -12.97970901	      6.77271220	    -57.60546047	    -10.73191237	     31.14081012	     31.78954721	      0.00000000	      0.00000000	      0.00000000
      0.07000000	     68.93887682	     -1.11871434	      3.91633354	      0.65196671	      1.01436004	     -0.21797749	     -7.81742860	     -8.99878554	     -0.50047054	    -51.77274857	    -16.88294023	     29.47074591	     80.99884321	    -10.79054442	    -13.04855835	      6.72870821	    -57.62188921	    -10.72119573	     31.12478028	     31.74969425	      0.00000000	      0.00000000	      0.00000000
      0.08000000	     68.90823274	     -1.14459011	      3.91788440	      0.65199277	      1.01434855	     -0.21789123	     -7.82717358	     -8.95766037	     -0.33589818	    -50.69244091	    -17.29440393	     29.17337596	     80.72168524	    -10.75045102	    -13.10114399	      6.69384268	    -57.64234528	    -10.70704995	     31.11093718	     31.72392095	      0.00000000	      0.00000000	      0.00000000
      0.09000000	     68.86031300	     -1.15875282	      3.91890646	      0.65205210	      1.01433265	     -0.21782211	     -7.81680195	     -8.93291462	     -0.15654705	    -49.56894164	    -17.70037290	     28.87657256	     80.40191313	    -10.68618759	    -13.13619022	      6.66985800	    -57.66572009	    -10.69076775	     31.10331940	     31.71499948	      0.00000000	      0.00000000	      0.00000000
      0.10000000	     68.80216222	     -1.16427018	      3.91829213	      0.65211537	      1.01430003	     -0.21775954	     -7.79543719	     -8.91929743	      0.03691829	    -48.40486379	    -18.09650303	     28.58619770	     80.04036195	    -10.60951141	    -13.15711654	      6.65476150	    -57.68985408	    -10.67430607	     31.10580316	     31.72266161	      0.00000000	      0.00000000	      0.00000000
      0.11000000	     68.74364115	     -1.16515688	      3.91524020	      0.65215501	      1.01425496	     -0.21769484	     -7.77376460	     -8.91085909	      0.24357624	    -47.20222091	    -18.48305848	     28.30635927	     79.63945692	    -10.53450566	    -13.16933314	      6.64491062	    -57.71064683	    -10.65926965	     31.12119921	     31.74279652	      0.00000000	      0.00000000	      0.00000000
      0.12000000	     68.69413282	     -1.16456401	      3.90951812	      0.65217059	      1.01421189	     -0.21762606	     -7.76045426	     -8.90353210	      0.46233714	    -45.96373725	    -18.86282493	     28.03979734	     79.20326945	    -10.47347890	    -13.17805618	      6.63680163	    -57.72292236	    -10.64618707	     31.15037347	     31.76706088	      0.00000000	      0.00000000	      0.00000000
      0.13000000	     68.65918906	     -1.16405294	      3.90166009	      0.65218114	      1.01417962	     -0.21755459	     -7.75946486	     -8.89577557	      0.69190732	    -44.69383096	    -19.23926230	     27.78840526	     78.73727186	    -10.43416485	    -13.18710988	      6.62814136	    -57.72285145	    -10.63419477	     31.19158470	     31.78304598	      0.00000000	      0.00000000	      0.00000000
      0.14000000	     68.63894109	     -1.16421427	      3.89263063	      0.65220412	      1.01415982	     -0.21748271	     -7.76901533	     -8.88788108	      0.93069323	    -43.39916734	    -19.61512985	     27.55366839	     78.24780737	    -10.41743864	    -13.19882921	      6.61825216	    -57.71070764	    -10.62114984	     31.24021317	     31.77509783	      0.00000000	      0.00000000	      0.00000000
      0.15000000	     68.62860210	     -1.16596249	      3.88344687	      0.65223861	      1.01415325	     -0.21740694	     -7.78215935	     -8.88047899	      1.17688732	    -42.08851919	    -19.99167486	     27.33687971	     77.74135783	    -10.41591755	    -13.21458827	      6.60785859	    -57.69307851	    -10.60410065	     31.28900190	     31.72580524	      0.00000000	      0.00000000	      0.00000000
      0.16000000	     68.62037937	     -1.17117202	      3.87506936	      0.65227275	      1.01415246	     -0.21732461	     -7.78843918	     -8.87255388	      1.42881426	    -40.77182498	    -20.36836448	     27.13909960	     77.22372898	    -10.41420776	    -13.23543287	      6.59847533	    -57.68384336	    -10.57996720	     31.32884494	     31.61806605	      0.00000000	      0.00000000	      0.00000000
      0.17000000	     68.60562512	     -1.18260837	      3.86836964	      0.65229250	      1.01412594	     -0.21724946	     -7.77641709	     -8.85995516	      1.68536914	    -39.45898732	    -20.74306099	     26.96090302	     76.69927917	    -10.39102635	    -13.26238278	      6.59173392	    -57.70324615	    -10.54625417	     31.35005611	     31.43752306	      0.00000000	      0.00000000	      0.00000000
      0.18000000	     68.57701907	     -1.20393038	      3.86419621	      0.65229204	      1.01403489	     -0.21720161	     -7.73612613	     -8.83570088	      1.94638022	    -38.15878270	    -21.11249373	     26.80200479	     76.17029974	    -10.32295570	    -13.29630842	      6.58889908	    -57.77469510	    -10.50163880	     31.34395181	     31.17505295	      0.00000000	      0.00000000	      0.00000000
      0.19000000	     68.53082483	     -1.23962950	      3.86372576	      0.65230169	      1.01389096	     -0.21716940	     -7.66004067	     -8.79249487	      2.21279561	    -36.87775008	    -21.47285909	     26.66086100	     75.63663236	    -10.18961978	    -13.33802788	      6.59064050	    -57.91976777	    -10.44633094	     31.30449678	     30.82892276	      0.00000000	      0.00000000	      0.00000000
      0.20000000	     68.46769906	     -1.29381605	      3.86872775	      0.65238987	      1.01376909	     -0.21710003	     -7.54291023	     -8.72639351	      2.48654210	    -35.61926118	    -21.82041950	     26.53434582	     75.09559130	     -9.97981445	    -13.38932960	      6.59690900	    -58.15302427	    -10.38217655	     31.22971016	     30.40621891	      0.00000000	      0.00000000	      0.00000000
      0.21000000	     68.39057752	     -1.36756866	      3.88067921	      0.65257911	      1.01369599	     -0.21697086	     -7.38278091	     -8.63928897	      2.76986427	    -34.38360955	    -22.15210334	     26.41764571	     74.54224256	     -9.69648808	    -13.45408271	      6.60660305	    -58.47861809	    -10.31252502	     31.12253169	     29.92321061	      0.00000000	      0.00000000	      0.00000000
      0.22000000	     68.30254761	     -1.45726212	      3.89843222	      0.65276128	      1.01355428	     -0.21685291	     -7.18421290	     -8.53817812	      3.06424434	    -33.16942608	    -22.46616636	     26.30451797	     73.97005380	     -9.35638459	    -13.53651120	      6.61679723	    -58.88943951	    -10.24185369	     30.99092725	     29.40443141	      0.00000000	      0.00000000	      0.00000000
